<svg enable-background="new 0 0 1500 1500" viewBox="0 0 1500 1500" xmlns="http://www.w3.org/2000/svg"><path d="m1135 463.2c1.3-29.3-8.9-54.3-29.9-74.1-19.2-21.6-43.8-32.7-73.2-32.3 0 0 0 0-.9.9-28.4-2.2-53.4 8-74.1 28.1l-52.9 51.3 148.2 148.2 50.5-48.9c20.8-20.1 31.8-44.8 32.3-73.2z" fill="none"/><path d="m533.3 838.3 125.2-67.9 56.1-30.4c-14.1-29.7-9.5-66.3 14.5-91.5 31.2-32.7 83.1-34 115.8-2.8 32.8 31.2 34 83 2.8 115.8-24.6 25.8-62 31.7-92.7 17.9l-26.5 56.9-62.6 134.7 103.9 103.9c30.2 30.2 86.8 22.4 126.5-17.4l186.9-186.9c39.8-39.7 47.6-96.4 17.4-126.6l-397.2-397.3c-30.1-30.1-86.8-22.3-126.6 17.4l-186.9 186.9c-39.8 39.7-47.5 96.4-17.4 126.5z" fill="none"/><path d="m956.9 385.8c20.8-20.1 45.8-30.3 74.1-28.1.9-.9.9-.9.9-.9 29.3-.4 54 10.7 73.2 32.3 21 19.9 31.2 44.9 29.9 74.1-.5 28.4-11.5 53.1-32.3 73.1l-50.5 48.9 38.8 38.8 49.3-48.9c31.5-30.5 48.1-67.5 49.7-111-.4-31.1-7.9-58.7-22.6-82.9-6-11.6-13.9-21.6-23.5-29.7-8.7-10.7-17.5-18-28.9-24.4-23.7-15.4-51.1-23.9-81.3-24.4-44.3-.7-82.7 13.8-114.3 44.3l-53.6 51.9 38.2 38.2z" fill="#f99d1f"/><path d="m755 779.4c30.8 13.8 68.1 7.9 92.7-17.9 31.2-32.8 29.9-84.6-2.8-115.8s-84.6-29.9-115.8 2.8c-24 25.3-28.6 61.9-14.5 91.5l-56.1 30.4-125.2 67.9 132.6 132.6 62.6-134.7z" fill="#f99d1f"/><path d="m792.8 1208.1c40.2 40.2 115.8 29.8 168.8-23.2l249.1-249.1c53-53 63.4-128.6 23.2-168.8l-142.9-142.9-38.8-38.8-148.2-148.2-38.2-38.2-161.6-161.6c-40.2-40.2-115.7-29.8-168.8 23.2l-249.1 249.1c-53 53-63.4 128.6-23.2 168.8zm281.9-185.5-26.3 26.3c-5.6 5.6-11 9.3-12.1 8.2l-14-14c-1.1-1.1 2.6-6.5 8.2-12.1l26.3-26.3c5.6-5.6 11-9.3 12.1-8.2l14 14c1.1 1.1-2.6 6.5-8.2 12.1zm-684.8-471.6 186.9-186.9c39.8-39.7 96.4-47.5 126.6-17.4l397.3 397.3c30.1 30.2 22.4 86.9-17.4 126.6l-186.9 186.9c-39.7 39.8-96.4 47.5-126.5 17.4l-104-104-132.6-132.6-160.8-160.8c-30.1-30.1-22.3-86.8 17.4-126.5z" fill="#024f77"/><path d="m1068.9 996.5c-1.1-1-6.5 2.6-12.1 8.2l-26.3 26.3c-5.6 5.6-9.3 11-8.2 12.1l14 14c1.1 1 6.5-2.6 12.1-8.2l26.3-26.3c5.6-5.6 9.3-11 8.2-12.1z" fill="#fff"/><path d="m775.9 1255.3c-349.2 0-632.2 7.1-632.2 16 0 8.8 283 15.9 632.2 15.9s632.2-7.1 632.2-15.9-283-16-632.2-16z" fill="#bbbdbf"/></svg>